<?xml version="1.0" encoding="UTF-8" standalone="no"?>
<svg
   xmlns:dc="http://purl.org/dc/elements/1.1/"
   xmlns:cc="http://creativecommons.org/ns#"
   xmlns:rdf="http://www.w3.org/1999/02/22-rdf-syntax-ns#"
   xmlns:svg="http://www.w3.org/2000/svg"
   xmlns="http://www.w3.org/2000/svg"
   xmlns:sodipodi="http://sodipodi.sourceforge.net/DTD/sodipodi-0.dtd"
   xmlns:inkscape="http://www.inkscape.org/namespaces/inkscape"
   width="60px"
   height="56px"
   viewBox="0 0 60 56"
   version="1.1"
   id="svg8"
   sodipodi:docname="icon-strava.svg"
   inkscape:version="0.92.1 r15371">
  <metadata
     id="metadata12">
    <rdf:RDF>
      <cc:Work
         rdf:about="">
        <dc:format>image/svg+xml</dc:format>
        <dc:type
           rdf:resource="http://purl.org/dc/dcmitype/StillImage" />
      </cc:Work>
    </rdf:RDF>
  </metadata>
  <sodipodi:namedview
     pagecolor="#ffffff"
     bordercolor="#666666"
     borderopacity="1"
     objecttolerance="10"
     gridtolerance="10"
     guidetolerance="10"
     inkscape:pageopacity="0"
     inkscape:pageshadow="2"
     inkscape:window-width="1362"
     inkscape:window-height="773"
     id="namedview10"
     showgrid="false"
     inkscape:zoom="4.2142857"
     inkscape:cx="30"
     inkscape:cy="28"
     inkscape:window-x="330"
     inkscape:window-y="1324"
     inkscape:window-maximized="0"
     inkscape:current-layer="svg8" />
  <title
     id="title2">icon-strava</title>
  <description>Created with Sketch (http://www.bohemiancoding.com/sketch)</description>
  <defs
     id="defs4" />
  <g
     id="Page 1"
     stroke-width="1"
     stroke="none"
     fill-rule="evenodd"
     fill="none"
     style="fill:#444466;fill-opacity:1">
    <path
       d="M28.5039062,12.0177002 L19.9957275,29.0440674 L24.4597168,29.0440674 L28.5039062,21.0603027 Z M41.4305852,8.5493094 C47.9510969,10.9805223 52.8069158,9.75369874 52.8069158,9.75369874 L52.8611703,28.3414609 C52.8611703,28.3414609 51.8611703,37.0283181 45.0748356,43.7809847 C38.2885009,50.5336511 30.0316485,54.75 30.0316485,54.75 L30.0190052,33.3771858 L29.9810326,33.3133243 L29.9683515,54.75 C29.9683515,54.75 21.7114991,50.5336511 14.9251644,43.7809847 C8.13882967,37.0283181 7.13882967,28.3414609 7.13882967,28.3414609 L7.19308418,9.75369874 C7.19308418,9.75369874 12.0489031,10.9805223 18.5694148,8.5493094 C23.4523609,6.72867288 30,1.25 30,1.25 L29.9921219,14.5674219 L28.5172114,11.5585938 L28.5172119,21.1037598 L29.9865519,23.9832445 L29.9830003,29.9869995 L30.0169997,29.9869995 L30.0134793,24.0360144 L32.5653076,29.0368652 L37.0849609,29.0368652 L30.0078971,14.5996033 L30,1.25 C30,1.25 36.5476391,6.72867288 41.4305852,8.5493094 Z M30.0169997,29.9869995 L30.0190052,33.3771858 L34.0014038,40.074707 L39.9509277,30.0551147 L36.0596313,30.0551147 L34.0014038,34.0205688 L32.0011597,29.9869995 Z M29.9810326,33.3133243 L29.9830003,29.9869995 L28.0031738,29.9869995 Z M29.9810326,33.3133243"
       id="badge"
       fill="#000000"
       style="fill:#444466;fill-opacity:1" />
  </g>
  <path
     style="fill:none;fill-opacity:1;stroke:none;stroke-width:0.47457626;stroke-miterlimit:4;stroke-dasharray:none;stroke-opacity:1"
     d="M 26.964496,52.855932 C 21.862242,49.730904 16.381017,45.393617 13.943228,42.552215 11.40088,39.588944 9.4903192,36.164738 8.1406491,32.152542 l -0.7982178,-2.372881 -0.072862,-9.847458 -0.072862,-9.847457 3.1558847,-0.01564 c 6.149091,-0.03047 10.545397,-1.7594464 17.186283,-6.7590145 l 2.4567,-1.8495179 2.55306,1.9042261 c 6.732778,5.0217104 10.946348,6.6738203 17.098776,6.7043063 l 3.155883,0.01564 -0.07286,9.847458 -0.07286,9.847458 -0.798218,2.372881 c -2.111245,6.276148 -5.307875,10.671702 -11.182785,15.376991 -3.31935,2.658507 -10.036868,7.053667 -10.331083,6.759453 -0.06237,-0.06237 -0.08554,-4.625177 -0.05148,-10.139568 l 0.06193,-10.026167 1.747442,2.989223 c 0.961093,1.64407 1.81533,2.987007 1.898305,2.9843 0.158091,-0.0052 5.579707,-9.06272 5.855973,-9.783215 0.143865,-0.375195 -0.03339,-0.415254 -1.83741,-0.415254 h -1.996635 l -1.014611,1.904221 -1.014611,1.90422 -0.920861,-1.90422 -0.920858,-1.904221 h -0.95769 -0.957688 l 0.01391,-2.550847 0.01391,-2.550848 1.107321,2.194915 1.10732,2.194916 H 34.7992 c 1.275697,0 2.319843,-0.08008 2.320327,-0.177966 0.0014,-0.284639 -8.410564,-17.383195 -8.542527,-17.363926 -0.147588,0.02155 -8.569619,17.117165 -8.554212,17.363926 0.0061,0.09788 1.024902,0.177966 2.263978,0.177966 h 2.252866 l 1.987171,-3.968837 1.987171,-3.968837 0.62437,1.232135 c 0.578916,1.142439 0.624368,1.456275 0.624368,4.311126 v 3.078989 l -0.949225,0.07297 -0.949224,0.07297 0.940846,1.542373 0.940846,1.542373 0.0084,10.618644 c 0.0046,5.840254 -0.07641,10.618644 -0.180035,10.618644 -0.103628,0 -1.278039,-0.667373 -2.609802,-1.483051 z"
     id="path4489"
     inkscape:connector-curvature="0" />
</svg>
